PathFileType	4	(X/Y/Z)	D:\TRACE\v60_Jaco2_6-2-23\JustBodyDRS_Motion3_7-v60.trc
DataRate	CameraRate	NumFrames	NumMarkers	Units	OrigDataRate	OrigDataStartFrame	OrigNumFrames
100.00	100.00	      17	9	mm	100.00	1	      7000
Frame#	Time	front left toe			Front right toe			aft left toe			aft right toe			Arm			FL body			FR body			AL Body			AR Body			
		X1	Y1	Z1	X2	Y2	Z2	X3	Y3	Z3	X4	Y4	Z4	X5	Y5	Z5	X6	Y6	Z6	X7	Y7	Z7	X8	Y8	Z8	X9	Y9	Z9	

1	0.000	-302.20517	76.06255	-280.61197	113.19229	72.77120	-260.99695	-337.07480	-35.49088	345.45056	65.42464	-34.78991	339.34415	-70.51268	1262.09155	-186.14403	-163.60442	650.94000	-417.18396	-5.57020	649.40155	-408.11801	-208.65924	485.49426	512.13062	-57.19095	475.13721	517.96515	
2	0.010	-302.20654	76.05939	-280.62128	113.07846	72.80724	-261.03479	-337.11783	-35.43176	345.42053	65.39915	-34.78209	339.28540	-70.53664	1262.09863	-186.16673	-163.61636	650.93591	-417.19278	-5.61463	649.41376	-408.11835	-208.67395	485.51614	512.11224	-57.12561	475.11163	517.93427	
3	0.020	-302.23935	76.06557	-280.58673	113.00813	72.76509	-261.08435	-337.11130	-35.44120	345.39417	65.39850	-34.74473	339.29105	-70.53551	1262.12158	-186.15224	-163.60234	650.94043	-417.17889	-5.58248	649.40826	-408.12234	-208.70572	485.49176	512.13324	-57.15828	475.13403	517.94342	
4	0.030	-302.19150	76.05125	-280.60071	113.14804	72.79178	-261.04160	-337.13538	-35.40786	345.42920	65.43045	-34.79318	339.27023	-70.50118	1262.10779	-186.15689	-163.59740	650.93866	-417.18683	-5.61686	649.43085	-408.10776	-208.69875	485.52383	512.10229	-57.14415	475.07596	517.95221	
5	0.040	-302.18744	76.04789	-280.59430	113.08323	72.80728	-261.00705	-336.87939	-35.20337	345.10968	65.37290	-34.82233	339.35001	-70.56425	1262.10889	-186.16087	-163.59250	650.92651	-417.19333	-5.57378	649.40912	-408.10724	-208.69905	485.51447	512.14581	-57.19351	475.10559	517.97821	
6	0.050	-302.15384	76.04897	-280.58432	113.19794	72.79430	-260.99155	-336.79355	-35.31252	345.09439	64.04609	-35.20797	339.08182	-71.38431	1262.10449	-186.23888	-163.61308	650.94983	-417.16714	-5.57645	649.40491	-408.13034	-208.64780	485.49216	512.15137	-57.18151	475.13861	517.96594	
7	0.060	-302.19397	76.04516	-280.58914	113.11880	72.79864	-261.04333	-336.80984	-35.31479	345.08835	65.41555	-34.75043	339.34265	-70.51038	1262.11694	-186.14751	-163.61142	650.94934	-417.15765	-5.55970	649.40698	-408.11389	-208.70422	485.49634	512.13348	-57.16337	475.14456	517.96008	
8	0.070	-302.20181	76.06366	-280.60461	113.25150	72.82261	-260.94955	-336.86539	-35.25018	345.09726	65.40540	-34.79861	339.31314	-71.38112	1262.10156	-186.27623	-163.60991	650.93921	-417.17542	-5.57435	649.42377	-408.10049	-208.67899	485.48340	512.12311	-57.16780	475.13287	517.95038	
9	0.080	-302.18488	76.06111	-280.60324	113.13080	72.78880	-261.02234	-337.11642	-35.46655	345.40775	65.46637	-34.73729	339.34317	-71.41550	1262.11414	-186.26434	-163.59821	650.93500	-417.18103	-5.59467	649.40234	-408.12088	-208.69263	485.50421	512.12390	-57.18124	475.13266	517.97888	
10	0.090	-302.15887	76.06095	-280.59396	113.06453	72.78448	-261.04950	-337.14227	-35.43775	345.38660	65.38142	-34.77593	339.30066	-71.37730	1262.11035	-186.25047	-163.62866	650.95026	-417.18933	-5.56779	649.41351	-408.13785	-208.69099	485.51755	512.09222	-57.15141	475.10385	517.95544	
11	0.100	-302.20667	76.05229	-280.59869	113.09080	72.77299	-261.05212	-336.85693	-35.21885	345.09055	65.44424	-34.73993	339.29968	-71.39066	1262.10217	-186.25696	-163.60791	650.92389	-417.17554	-5.56657	649.42163	-408.13419	-208.70892	485.49640	512.13165	-57.15815	475.12534	517.93939	
12	0.110	-302.18658	76.07880	-280.59470	113.16478	72.76568	-261.01074	-336.81192	-35.28349	345.11069	65.41140	-34.80191	339.34662	-71.37836	1262.10693	-186.26170	-163.60823	650.94012	-417.16983	-5.59489	649.43195	-408.12415	-208.69527	485.47797	512.11853	-57.16496	475.11783	517.97937	
13	0.120	-302.19165	76.05088	-280.59384	113.14252	72.75802	-261.02759	-337.11075	-35.45915	345.43301	65.37328	-34.80171	339.30725	-71.35145	1262.08997	-186.24054	-163.60674	650.92145	-417.16415	-5.57822	649.40845	-408.12390	-208.70685	485.46680	512.12292	-57.16914	475.10803	517.95703	
14	0.130	-302.17126	76.04744	-280.57889	113.16669	72.77747	-261.01849	-337.09653	-35.46234	345.41574	64.01905	-35.26500	339.07394	-71.38371	1262.08813	-186.24594	-163.62317	650.92480	-417.15417	-5.60624	649.42004	-408.12500	-208.67554	485.48895	512.13507	-57.13140	475.12122	517.95319	
15	0.140	-302.21780	76.05124	-280.58557	113.15361	72.77057	-261.02914	-336.87988	-35.22569	345.08734	63.98737	-35.26125	339.08246	-71.38454	1262.11780	-186.25273	-163.60866	650.93298	-417.14975	-5.63771	649.42920	-408.11508	-208.64665	485.52084	512.10632	-57.21657	475.13135	517.97089	
16	0.150	-302.19180	76.04456	-280.61304	113.09447	72.80039	-261.01810	-337.11719	-35.45169	345.39041	65.36494	-34.79700	339.32330	-71.39544	1262.13696	-186.27696	-163.60677	650.94312	-417.19864	-5.61992	649.41547	-408.12964	-208.69397	485.49789	512.15186	-57.18625	475.13531	517.94153	
17	0.160	-302.19995	76.05448	-280.58298	113.08842	72.77570	-261.05579	-336.87057	-35.22090	345.09351	65.41949	-34.76791	339.27460	-71.40165	1262.10559	-186.27818	-163.61508	650.95233	-417.19769	-5.59124	649.41931	-408.11557	-208.71320	485.51285	512.14441	-57.11509	475.11353	517.94373	
